<?xml version="1.0" standalone="no"?>
<!DOCTYPE svg PUBLIC "-//W3C//DTD SVG 20010904//EN" "http://www.w3.org/TR/2001/REC-SVG-20010904/DTD/svg10.dtd">
<svg xmlns="http://www.w3.org/2000/svg" version="1.0" width="2000.000000pt" height="2000.000000pt" viewBox="0 0 2000.000000 2000.000000" preserveAspectRatio="xMidYMid meet">
<metadata>
Created by potrace 1.16, written by Peter Selinger 2001-2019
<meta name="Producer" content="Online-Convert"/></metadata>
<g transform="translate(0.000000,2000.000000) scale(0.100000,-0.100000)" fill="#000000" stroke="none">
<path d="M12340 13399 c-63 -55 -189 -138 -301 -197 -254 -135 -588 -231 -982 -282 -406 -52 -614 -60 -1807 -70 -1024 -9 -1193 -13 -1615 -45 -1173 -90 -2102 -331 -2939 -763 -516 -267 -1010 -621 -1438 -1031 -62 -59 -120 -110 -129 -113 -35 -13 -232 -254 -321 -393 -224 -351 -357 -777 -370 -1190 l-3 -80 72 3 c40 2 73 8 73 12 0 5 -8 7 -17 4 -15 -5 -15 -4 -3 4 9 7 19 7 26 1 6 -5 42 -7 80 -3 38 3 84 5 102 5 36 0 40 6 15 25 -13 9 -22 9 -31 2 -9 -8 -11 -7 -6 6 7 18 44 22 44 5 0 -8 6 -7 17 2 16 12 17 12 6 -1 -12 -16 -3 -43 13 -40 16 3 43 32 40 43 -2 7 -1 9 1 4 3 -4 10 -4 16 -1 8 5 8 2 0 -7 -17 -18 -16 -29 3 -29 9 0 12 5 8 13 -6 9 -4 9 7 0 16 -16 30 -17 27 -2 -2 6 3 14 10 16 8 3 10 -1 5 -13 -5 -14 -2 -16 18 -10 13 4 42 8 64 8 22 0 43 6 47 12 5 8 8 7 8 -2 0 -9 6 -8 24 3 13 9 27 12 30 7 3 -5 25 -8 48 -8 32 1 42 5 40 15 -3 12 0 12 12 2 19 -16 72 -10 68 7 -1 8 2 11 8 7 6 -3 8 -11 5 -16 -4 -5 4 -7 17 -5 13 3 28 5 33 5 6 1 3 6 -5 11 -9 6 -10 10 -3 10 6 0 15 -4 18 -10 7 -12 75 -10 75 3 0 5 6 4 14 -2 17 -14 29 0 20 23 -4 10 -1 16 9 16 10 0 13 -7 10 -20 -5 -18 0 -20 41 -20 25 0 46 3 46 8 0 4 31 6 70 4 38 -2 70 0 70 5 0 5 27 8 60 7 33 -2 62 1 65 5 2 5 20 7 39 5 23 -3 36 0 40 11 3 9 12 12 22 8 16 -6 16 -7 -2 -14 -17 -7 -17 -8 4 -8 12 -1 22 2 22 7 0 4 55 8 123 10 140 3 155 5 137 27 -7 9 -8 15 -2 15 5 0 12 -7 16 -15 3 -9 18 -14 40 -13 19 1 33 5 30 10 -3 5 -12 7 -18 5 -7 -3 -19 -2 -25 3 -9 5 -4 7 13 7 14 0 30 -5 36 -12 6 -7 25 -11 43 -9 18 1 61 5 96 8 36 4 68 12 73 19 6 9 8 8 8 -3 0 -13 1 -13 10 0 6 10 10 11 10 3 0 -16 107 -6 129 11 11 8 13 8 7 -1 -5 -9 0 -13 18 -13 14 0 27 4 31 10 3 5 13 6 23 3 13 -4 13 -2 -3 10 -18 15 -18 16 -2 17 10 0 20 -7 23 -15 4 -8 14 -15 23 -15 14 0 14 2 1 10 -8 5 -10 10 -4 10 5 0 15 -5 21 -11 19 -19 45 -3 37 23 -6 23 -6 23 15 -1 19 -22 26 -23 83 -18 43 4 66 11 76 24 13 16 14 16 9 1 -6 -16 0 -17 51 -13 31 3 89 7 127 10 39 2 104 7 145 11 41 4 81 6 89 5 7 -1 25 0 38 4 22 5 23 8 12 23 -12 15 -11 15 7 -1 18 -14 34 -17 100 -12 152 10 183 15 187 33 4 16 5 16 6 0 1 -15 10 -16 68 -12 37 3 71 10 75 17 4 7 8 7 8 2 0 -6 11 -12 25 -13 14 -1 25 2 25 7 0 6 16 7 37 4 29 -5 35 -3 28 8 -7 12 -6 12 7 1 10 -8 28 -10 49 -6 19 3 41 7 49 8 8 0 18 8 22 16 6 13 7 13 7 0 1 -17 51 -26 51 -9 0 5 4 8 9 4 5 -3 12 -1 16 5 3 5 11 10 16 10 6 0 7 -4 4 -10 -9 -14 19 -12 33 2 10 10 15 10 21 -1 6 -9 16 -11 32 -5 13 4 39 6 58 5 57 -3 91 8 91 30 0 13 -4 18 -12 13 -6 -4 -8 -3 -5 3 8 12 55 5 64 -10 4 -6 -2 -8 -16 -4 -14 3 -21 1 -18 -6 2 -7 23 -11 53 -10 180 6 192 8 181 37 -4 9 -2 16 3 16 6 0 10 -10 10 -21 0 -19 2 -20 17 -8 12 10 15 11 9 1 -10 -17 105 -7 116 11 6 9 8 9 8 0 0 -8 15 -13 40 -13 22 0 40 3 40 8 0 4 28 7 62 7 47 0 62 3 60 13 -1 8 2 11 7 8 5 -4 12 2 14 11 3 13 5 10 6 -7 1 -20 3 -22 11 -10 7 11 10 11 10 2 0 -17 31 -11 48 8 10 13 11 13 6 -2 -4 -13 0 -16 23 -13 15 2 73 7 128 11 55 4 105 8 110 9 6 1 27 3 48 3 28 2 36 5 31 15 -6 9 -4 9 8 -1 18 -15 129 -6 140 12 6 8 8 7 8 -1 0 -6 9 -11 20 -10 12 1 18 7 16 14 -3 7 -1 13 4 13 6 0 10 -3 10 -7 0 -10 88 -16 102 -7 5 4 40 7 76 9 97 3 95 3 89 25 -3 11 -1 20 4 20 8 0 13 -15 10 -32 -2 -12 32 -9 50 5 9 7 14 19 11 27 -4 12 -3 13 10 3 8 -7 18 -10 22 -6 4 4 4 0 0 -10 -3 -9 -9 -15 -13 -13 -4 3 -13 0 -21 -5 -10 -7 -1 -8 30 -3 25 4 63 6 84 5 22 0 50 6 62 14 13 8 29 15 36 14 7 0 4 -4 -7 -9 -16 -7 -14 -9 13 -7 17 1 32 5 32 9 0 4 -5 8 -11 8 -5 0 -7 5 -3 12 5 8 11 5 17 -10 8 -17 16 -21 31 -16 11 4 48 7 83 8 34 1 65 5 69 9 4 4 2 7 -5 7 -7 0 -9 5 -6 10 10 16 -17 11 -37 -7 -10 -9 -18 -11 -18 -5 0 7 -7 9 -17 5 -15 -6 -16 -5 -3 9 10 11 17 12 22 5 4 -8 11 -7 20 1 15 12 59 12 52 0 -3 -4 0 -8 6 -8 6 0 9 -4 6 -8 -3 -5 13 -9 34 -10 41 -3 62 14 39 30 -11 7 -9 9 7 5 18 -4 363 337 1865 1839 1014 1014 1842 1844 1839 1844 -3 -1 -25 -19 -50 -41z"/>
<path d="M17528 10763 c-16 -2 -28 -9 -28 -14 0 -6 5 -7 12 -3 7 4 8 3 4 -4 -4 -7 -2 -12 3 -12 6 0 11 5 11 10 0 6 5 10 11 10 8 0 8 -4 0 -14 -12 -15 -54 -19 -45 -5 2 4 -1 11 -8 16 -21 12 -58 15 -58 3 0 -6 5 -8 12 -4 7 4 8 3 4 -5 -5 -7 -12 -9 -19 -3 -7 5 -37 10 -69 11 -45 2 -59 -1 -68 -16 -8 -13 -13 -14 -16 -5 -7 15 -44 16 -44 1 0 -5 6 -7 13 -3 6 4 9 4 5 -1 -4 -4 -3 -13 2 -20 7 -8 5 -12 -5 -12 -8 0 -15 7 -15 14 0 8 -4 11 -10 8 -6 -4 -7 1 -3 11 6 15 2 16 -28 9 -19 -4 -51 -7 -71 -7 -29 0 -38 -3 -39 -16 0 -14 -1 -15 -7 -2 -4 9 -13 15 -19 14 -7 -1 -22 -2 -34 -3 -11 0 -17 -6 -14 -11 4 -6 10 -8 15 -5 5 3 11 1 15 -5 4 -6 11 -8 16 -5 5 3 6 -1 2 -11 -5 -15 -7 -15 -15 0 -5 9 -13 14 -17 11 -5 -2 -14 2 -20 9 -14 17 -86 15 -121 -4 -14 -8 -20 -8 -16 -1 4 6 3 11 -2 11 -5 0 -12 -9 -15 -21 -7 -24 -33 -20 -29 5 2 9 -3 16 -11 16 -22 0 -27 -11 -16 -34 10 -20 10 -21 -6 -1 -11 14 -30 20 -70 22 -30 1 -55 -1 -55 -5 0 -4 -27 -6 -60 -5 -47 1 -60 -1 -60 -13 0 -10 -4 -12 -12 -7 -32 20 -167 6 -154 -16 4 -5 -2 -8 -11 -6 -10 2 -25 4 -33 4 -13 1 -13 2 0 12 11 8 5 9 -25 6 -55 -7 -69 -10 -77 -22 -5 -6 -8 -5 -8 3 0 6 -5 12 -11 12 -5 0 -7 -6 -3 -12 6 -9 3 -9 -9 1 -18 15 -72 7 -62 -9 3 -6 -1 -10 -10 -10 -9 0 -14 4 -11 8 3 5 -15 10 -39 10 -33 2 -45 -2 -45 -12 0 -8 3 -16 8 -19 4 -2 1 -2 -5 -1 -7 2 -16 -4 -21 -13 -5 -9 -15 -13 -21 -9 -6 4 -9 12 -5 17 3 5 9 7 14 4 4 -3 10 1 13 9 4 9 -3 14 -21 14 -38 0 -44 -6 -31 -30 8 -16 8 -19 -1 -13 -7 4 -16 1 -21 -6 -7 -12 -9 -11 -9 1 0 13 -1 13 -10 0 -8 -13 -10 -12 -10 3 0 10 7 17 18 17 10 0 19 7 19 15 0 10 -6 14 -14 10 -8 -3 -28 -5 -45 -5 -27 0 -29 -2 -17 -17 11 -15 10 -15 -8 1 -17 14 -33 17 -65 14 -58 -7 -72 -11 -80 -23 -5 -6 -8 -5 -8 3 0 6 -9 12 -21 12 -11 0 -18 -4 -14 -9 3 -5 0 -13 -6 -17 -7 -4 -9 -3 -5 4 3 6 2 13 -3 16 -5 4 -12 2 -15 -2 -3 -5 -17 -7 -32 -4 -16 3 -29 -1 -35 -9 -6 -10 -9 -10 -9 -1 0 6 -11 12 -25 12 -19 0 -24 -5 -22 -21 1 -12 -5 -24 -13 -26 -12 -4 -13 -3 -1 5 14 10 7 32 -10 32 -6 0 -8 -4 -5 -8 3 -5 -1 -9 -9 -9 -8 0 -12 4 -9 9 3 4 -9 8 -26 8 -22 0 -29 -4 -24 -12 6 -10 4 -10 -8 0 -13 10 -19 10 -32 -3 -9 -9 -16 -12 -16 -6 0 17 -47 13 -75 -5 -14 -9 -25 -12 -25 -6 0 6 8 13 18 15 13 4 11 5 -5 6 -13 0 -23 -2 -23 -7 0 -4 -20 -6 -45 -4 -28 3 -45 0 -45 -7 0 -6 -5 -11 -11 -11 -5 0 -7 5 -4 10 3 6 2 10 -4 10 -5 0 -12 -4 -15 -9 -3 -4 -17 -6 -31 -3 -14 2 -33 -2 -42 -9 -12 -10 -14 -10 -9 -1 10 17 -9 15 -24 -3 -7 -8 -16 -13 -20 -10 -5 3 -10 2 -13 -2 -2 -5 -2 -2 -1 5 3 10 -12 12 -64 8 -37 -2 -75 -5 -85 -5 -12 -1 -16 -5 -11 -13 5 -8 0 -7 -11 2 -11 9 -16 10 -11 3 4 -7 2 -13 -3 -13 -6 0 -11 5 -11 10 0 6 -11 10 -25 10 -16 0 -25 -6 -25 -15 0 -8 5 -15 11 -15 5 0 7 -5 3 -11 -4 -8 -9 -7 -15 2 -7 11 -9 11 -9 1 0 -7 -5 -10 -10 -7 -8 5 -8 11 0 20 9 10 -2 12 -57 10 -112 -5 -206 -14 -212 -20 -3 -3 1 -15 8 -26 7 -12 10 -23 8 -26 -3 -2 -11 9 -18 25 -9 22 -19 29 -40 29 -17 0 -26 -5 -22 -11 4 -7 1 -7 -7 1 -15 14 -63 2 -94 -24 -11 -10 -15 -11 -8 -3 18 21 15 29 -13 27 -13 -1 -23 -6 -22 -12 1 -5 5 -9 10 -8 4 2 7 -2 7 -7 0 -6 -6 -10 -12 -8 -7 1 -24 -4 -36 -11 -13 -7 -26 -10 -29 -7 -3 3 6 10 21 16 15 5 24 14 21 20 -7 11 -235 3 -248 -9 -5 -5 -26 -6 -48 -4 -22 3 -47 2 -57 -3 -9 -4 -21 -6 -25 -5 -5 1 -6 -3 -3 -8 4 -5 0 -12 -6 -14 -10 -4 -10 -6 0 -6 6 -1 12 -6 12 -12 0 -8 -4 -8 -14 0 -11 9 -15 9 -19 -1 -4 -9 -6 -9 -6 -1 -1 6 4 15 9 18 23 14 7 25 -40 25 -29 0 -50 -5 -50 -11 0 -5 -4 -7 -10 -4 -5 3 -10 -1 -10 -9 0 -9 -4 -16 -10 -16 -5 0 -10 7 -10 16 0 8 -4 13 -10 9 -5 -3 -7 -12 -4 -19 3 -7 -3 -23 -14 -35 l-18 -23 0 25 c0 16 4 23 13 20 14 -6 17 6 5 22 -11 15 -32 17 -32 2 0 -8 -4 -7 -10 3 -5 8 -10 11 -10 5 0 -6 -30 -10 -67 -11 -147 -1 -194 -4 -190 -11 3 -5 -23 -7 -56 -5 -45 2 -58 0 -47 -7 9 -7 10 -11 3 -11 -6 0 -15 5 -18 10 -4 6 -10 8 -15 5 -5 -3 -25 -6 -45 -7 -19 -1 -35 -5 -35 -10 0 -4 -5 -8 -11 -8 -5 0 -7 5 -3 12 5 7 3 8 -7 3 -7 -5 -37 -8 -66 -7 -35 1 -53 -3 -53 -11 0 -9 -3 -8 -9 1 -11 18 -64 5 -57 -14 3 -8 -1 -14 -9 -14 -9 0 -12 6 -8 16 5 13 -1 15 -43 10 -27 -4 -69 -6 -93 -6 -58 1 -103 -9 -95 -22 4 -6 -1 -6 -14 1 -24 13 -89 15 -96 3 -3 -5 -29 -7 -58 -6 -29 1 -57 -1 -63 -4 -5 -4 -30 -7 -55 -7 -32 0 -44 -4 -42 -13 1 -8 -2 -11 -8 -7 -6 3 -8 11 -5 16 4 5 2 9 -3 9 -5 0 -12 -9 -15 -20 -6 -23 -35 -27 -43 -5 -5 13 -20 14 -88 9 -44 -4 -90 -7 -100 -6 -11 1 -25 -7 -32 -16 -7 -9 -18 -17 -26 -17 -7 -1 -12 -6 -11 -13 2 -7 -2 -12 -8 -12 -6 0 -9 7 -5 15 3 9 0 15 -10 15 -8 0 -13 -4 -9 -9 3 -5 1 -12 -4 -15 -5 -4 -8 2 -7 11 2 13 13 19 35 20 18 1 36 4 39 8 6 5 -48 4 -130 -4 -5 -1 -8 -6 -8 -12 0 -5 4 -7 10 -4 5 3 18 1 27 -4 10 -6 15 -11 11 -12 -5 -1 -11 -2 -15 -3 -5 -1 -14 -5 -22 -10 -8 -6 -12 -5 -8 0 11 19 -19 39 -62 42 -38 2 -42 0 -31 -13 7 -9 10 -18 6 -22 -3 -3 -6 0 -6 7 0 9 -5 7 -14 -6 -14 -19 -14 -19 -13 1 2 17 -5 20 -51 21 -29 1 -55 -2 -57 -6 -2 -4 -17 -6 -32 -4 -47 7 -158 -7 -142 -17 8 -5 11 -9 6 -9 -4 0 -16 6 -27 12 -16 10 -24 10 -41 0 -12 -8 -19 -9 -15 -4 3 5 -13 6 -38 2 -24 -3 -55 -5 -70 -3 -17 3 -25 0 -21 -6 3 -6 0 -8 -8 -5 -8 3 -20 -2 -27 -11 -12 -14 -11 -18 1 -26 11 -8 9 -9 -6 -5 -16 5 -372 -346 -1880 -1855 -1023 -1024 -1824 -1831 -1780 -1794 289 242 653 396 1140 480 425 73 850 94 1890 95 601 0 1147 10 1385 25 47 3 123 8 170 10 207 13 565 48 771 75 1523 202 2727 753 3741 1711 75 71 141 129 146 129 15 0 152 156 234 266 235 317 389 699 443 1097 9 65 15 145 13 177 -2 33 0 60 4 60 4 0 7 16 6 35 -1 19 -4 34 -7 34 -3 -1 -18 -4 -33 -6z"/>
</g>
</svg>
